<?xml version="1.0" encoding="utf-8"?>
<!-- Generator: Adobe Illustrator 16.0.0, SVG Export Plug-In . SVG Version: 6.00 Build 0)  -->
<!DOCTYPE svg PUBLIC "-//W3C//DTD SVG 1.1//EN" "http://www.w3.org/Graphics/SVG/1.1/DTD/svg11.dtd">
<svg version="1.1" id="Layer_1" xmlns="http://www.w3.org/2000/svg" xmlns:xlink="http://www.w3.org/1999/xlink" x="0px" y="0px"
	 width="40px" height="40px" viewBox="0 0 40 40" enable-background="new 0 0 40 40" xml:space="preserve">
<path fill-rule="evenodd" clip-rule="evenodd" fill="#E9E4E0" d="M20,0c11.046,0,20,8.954,20,20s-8.954,20-20,20S0,31.046,0,20
	S8.954,0,20,0z"/>
<path fill="#C8AA6A" d="M14.272,29.5c2.159,0,4.146-0.762,5.725-2.034c1.622,1.307,3.638,2.034,5.73,2.034
	C30.84,29.5,35,25.238,35,20s-4.16-9.5-9.272-9.5c-2.093,0-4.108,0.727-5.73,2.034c-1.578-1.272-3.565-2.034-5.725-2.034
	C9.16,10.5,5,14.762,5,20S9.16,29.5,14.272,29.5z M31.728,20c0,3.39-2.692,6.147-6,6.147c-1.285,0-2.526-0.425-3.547-1.192
	c0.865-1.443,1.364-3.141,1.364-4.955s-0.5-3.512-1.364-4.955c1.021-0.768,2.262-1.192,3.547-1.192
	C29.035,13.853,31.728,16.61,31.728,20z"/>
</svg>
