<?xml version="1.0" encoding="utf-8"?>
<!-- Generator: Adobe Illustrator 16.0.0, SVG Export Plug-In . SVG Version: 6.00 Build 0)  -->
<!DOCTYPE svg PUBLIC "-//W3C//DTD SVG 1.1//EN" "http://www.w3.org/Graphics/SVG/1.1/DTD/svg11.dtd">
<svg version="1.1" id="Layer_1" xmlns="http://www.w3.org/2000/svg" xmlns:xlink="http://www.w3.org/1999/xlink" x="0px" y="0px"
	 width="40px" height="40px" viewBox="0 0 40 40" enable-background="new 0 0 40 40" xml:space="preserve">
<path fill-rule="evenodd" clip-rule="evenodd" fill="#E9E4E0" d="M20,0c11.046,0,20,8.954,20,20s-8.954,20-20,20S0,31.046,0,20
	S8.954,0,20,0z"/>
<g>
	<g>
		<path fill="#C8AA6A" d="M15.602,24.855h2.437l1.524-9.687h-2.437L15.602,24.855z M24.475,19.06
			c-0.851-0.45-1.373-0.747-1.367-1.202c0-0.402,0.441-0.833,1.396-0.833c0.797-0.014,1.373,0.175,1.823,0.372l0.219,0.11l0.33-2.1
			c-0.482-0.194-1.24-0.406-2.184-0.406c-2.408,0-4.104,1.314-4.118,3.197c-0.015,1.392,1.21,2.168,2.134,2.631
			c0.949,0.475,1.269,0.778,1.265,1.202c-0.007,0.648-0.758,0.946-1.458,0.946c-0.976,0-1.494-0.146-2.295-0.508l-0.313-0.154
			l-0.341,2.167c0.568,0.271,1.621,0.505,2.715,0.517c2.56,0,4.223-1.299,4.242-3.308C26.53,20.587,25.881,19.75,24.475,19.06z
			 M33.028,15.18h-1.882c-0.584,0-1.021,0.171-1.277,0.803l-3.618,8.877h2.56c0,0,0.417-1.194,0.512-1.457
			c0.279,0,2.766,0.006,3.12,0.006c0.072,0.337,0.297,1.451,0.297,1.451H35L33.028,15.18z M30.023,21.421
			c0.202-0.557,0.971-2.707,0.971-2.707c-0.014,0.025,0.2-0.561,0.323-0.924l0.164,0.835c0,0,0.468,2.312,0.563,2.796H30.023z
			 M13.559,15.178l-2.383,6.6l-1.266-6.601H5l2.778,2.11l1.946,7.561h2.579l3.836-9.67H13.559z"/>
	</g>
</g>
</svg>
