<?xml version="1.0" encoding="utf-8"?>
<!-- Generator: Adobe Illustrator 16.0.0, SVG Export Plug-In . SVG Version: 6.00 Build 0)  -->
<!DOCTYPE svg PUBLIC "-//W3C//DTD SVG 1.1//EN" "http://www.w3.org/Graphics/SVG/1.1/DTD/svg11.dtd">
<svg version="1.1" id="Layer_1" xmlns="http://www.w3.org/2000/svg" xmlns:xlink="http://www.w3.org/1999/xlink" x="0px" y="0px"
	 width="40px" height="40px" viewBox="0 0 40 40" enable-background="new 0 0 40 40" xml:space="preserve">
<path fill-rule="evenodd" clip-rule="evenodd" fill="#E9E4E0" d="M20,0c11.046,0,20,8.954,20,20s-8.954,20-20,20S0,31.046,0,20
	S8.954,0,20,0z"/>
<path fill="#C8AA6A" d="M24.088,23.377c-1.047-1.185-2.493-1.918-4.088-1.918s-3.041,0.733-4.089,1.918l-2.308-2.61
	c1.639-1.853,3.901-3.001,6.396-3.001s4.757,1.148,6.396,3.001L24.088,23.377z M17.383,25.041L20,28l2.616-2.959
	c-0.669-0.757-1.595-1.226-2.616-1.226C18.978,23.815,18.053,24.284,17.383,25.041z M20,15.692c3.001,0,5.722,1.38,7.692,3.609
	L30,16.691C27.438,13.794,23.9,12,20,12c-3.901,0-7.438,1.794-10,4.691l2.308,2.61C14.278,17.072,16.999,15.692,20,15.692z"/>
</svg>
